HIERARCHY
ROOT Hips
{
	OFFSET 0.000000 0.000000 0.000000
	CHANNELS 6 Xposition Yposition Zposition Zrotation Yrotation Xrotation 
	JOINT LHipJoint
	{
		OFFSET 0.000000 0.000000 0.000000
		CHANNELS 3 Zrotation Yrotation Xrotation
		JOINT LeftUpLeg
		{
			OFFSET 1.363060 -1.794630 0.839290
			CHANNELS 3 Zrotation Yrotation Xrotation
			JOINT LeftLeg
			{
				OFFSET 2.448110 -6.726130 0.000000
				CHANNELS 3 Zrotation Yrotation Xrotation
				JOINT LeftFoot
				{
					OFFSET 2.562200 -7.039590 0.000000
					CHANNELS 3 Zrotation Yrotation Xrotation
					JOINT LeftToeBase
					{
						OFFSET 0.157640 -0.433110 2.322550
						CHANNELS 3 Zrotation Yrotation Xrotation
						End Site
						{
							OFFSET 0.000000 0.000000 0.000000
						}
					}
				}
			}
		}
	}
	JOINT RHipJoint
	{
		OFFSET 0.000000 0.000000 0.000000
		CHANNELS 3 Zrotation Yrotation Xrotation
		JOINT RightUpLeg
		{
			OFFSET -1.305520 -1.794630 0.839290
			CHANNELS 3 Zrotation Yrotation Xrotation
			JOINT RightLeg
			{
				OFFSET -2.542530 -6.985550 0.000000
				CHANNELS 3 Zrotation Yrotation Xrotation
				JOINT RightFoot
				{
					OFFSET -2.568260 -7.056230 0.000000
					CHANNELS 3 Zrotation Yrotation Xrotation
					JOINT RightToeBase
					{
						OFFSET -0.164730 -0.452590 2.363150
						CHANNELS 3 Zrotation Yrotation Xrotation
						End Site
						{
							OFFSET 0.000000 0.000000 0.000000
						}
					}
				}
			}
		}
	}
	JOINT LowerBack
	{
		OFFSET 0.000000 0.000000 0.000000
		CHANNELS 3 Zrotation Yrotation Xrotation
		JOINT Spine
		{
			OFFSET 0.028270 2.035590 -0.193380
			CHANNELS 3 Zrotation Yrotation Xrotation
			JOINT Spine1
			{
				OFFSET 0.056720 2.048850 -0.042750
				CHANNELS 3 Zrotation Yrotation Xrotation
				JOINT Neck
				{
					OFFSET 0.000000 0.000000 0.000000
					CHANNELS 3 Zrotation Yrotation Xrotation
					JOINT Neck1
					{
						OFFSET -0.054170 1.746240 0.172020
						CHANNELS 3 Zrotation Yrotation Xrotation
						JOINT Head
						{
							OFFSET 0.104070 1.761360 -0.123970
							CHANNELS 3 Zrotation Yrotation Xrotation
							End Site
							{
								OFFSET 0.000000 0.000000 0.000000
							}
						}
					}
				}
				JOINT LeftShoulder
				{
					OFFSET 0.000000 0.000000 0.000000
					CHANNELS 3 Zrotation Yrotation Xrotation
					JOINT LeftArm
					{
						OFFSET 3.362410 1.200890 -0.311210
						CHANNELS 3 Zrotation Yrotation Xrotation
						JOINT LeftForeArm
						{
							OFFSET 4.983000 -0.000000 -0.000000
							CHANNELS 3 Zrotation Yrotation Xrotation
							JOINT LeftHand
							{
								OFFSET 3.483560 -0.000000 -0.000000
								CHANNELS 3 Zrotation Yrotation Xrotation
								JOINT LeftFingerBase
								{
									OFFSET 0.000000 0.000000 0.000000
									CHANNELS 3 Zrotation Yrotation Xrotation
									JOINT LeftHandIndex1
									{
										OFFSET 0.715260 -0.000000 -0.000000
										CHANNELS 3 Zrotation Yrotation Xrotation
										End Site
										{
											OFFSET 0.000000 0.000000 0.000000
										}
									}
								}
								JOINT LThumb
								{
									OFFSET 0.000000 0.000000 0.000000
									CHANNELS 3 Zrotation Yrotation Xrotation
									End Site
									{
										OFFSET 0.000000 0.000000 0.000000
									}
								}
							}
						}
					}
				}
				JOINT RightShoulder
				{
					OFFSET 0.000000 0.000000 0.000000
					CHANNELS 3 Zrotation Yrotation Xrotation
					JOINT RightArm
					{
						OFFSET -3.136600 1.374050 -0.404650
						CHANNELS 3 Zrotation Yrotation Xrotation
						JOINT RightForeArm
						{
							OFFSET -5.241900 -0.000000 -0.000000
							CHANNELS 3 Zrotation Yrotation Xrotation
							JOINT RightHand
							{
								OFFSET -3.444170 -0.000000 -0.000000
								CHANNELS 3 Zrotation Yrotation Xrotation
								JOINT RightFingerBase
								{
									OFFSET 0.000000 0.000000 0.000000
									CHANNELS 3 Zrotation Yrotation Xrotation
									JOINT RightHandIndex1
									{
										OFFSET -0.622530 -0.000000 -0.000000
										CHANNELS 3 Zrotation Yrotation Xrotation
										End Site
										{
											OFFSET 0.000000 0.000000 0.000000
										}
									}
								}
								JOINT RThumb
								{
									OFFSET 0.000000 0.000000 0.000000
									CHANNELS 3 Zrotation Yrotation Xrotation
									End Site
									{
										OFFSET 0.000000 0.000000 0.000000
									}
								}
							}
						}
					}
				}
			}
		}
	}
}
MOTION
Frames: 7
Frame Time: 0.008333
6.464941 18.229556 -26.819378 3.201353 37.540796 4.832746 3.323082 3.351212 2.190719 -26.171444 -3.748162 -0.847618 5.917614 10.869887 36.058391 6.480219 -4.818005 -50.129591 1.311500 -7.254200 -20.470600 -8.285539 -4.982664 4.736710 29.915739 12.500732 -23.701220 -7.691902 -11.888216 43.137735 -2.658666 12.073881 -37.107381 -0.697200 5.337500 -14.873900 0.550057 -0.889748 -0.398722 -3.892677 -1.803094 28.104260 2.495739 -0.433739 -14.743081 -3.819865 -8.373043 -26.754429 6.473794 -9.944964 43.405771 -0.355100 -2.103900 18.020000 3.188066 -6.165593 -0.712983 -96.991261 -6.140543 47.927890 34.192157 -37.108768 -12.516367 0.965006 -0.164695 -29.031282 22.584089 4.463298 2.061300 -7.125000 0.000000 0.000000 -4.056100 35.508700 0.947800 0.139765 10.763159 0.624839 82.415291 10.283053 22.434461 -31.541862 33.197155 -9.336723 -0.228003 -0.432252 -17.564671 -35.629763 -5.165070 3.361900 7.125000 0.000000 0.000000 -7.209300 -35.729100 -1.653200 
6.469179 18.219420 -26.583874 3.081441 37.272332 4.538637 3.273892 3.330378 2.200947 -25.986590 -3.519718 -0.581423 5.934774 10.891939 36.126510 6.525833 -4.567732 -50.261032 1.299500 -7.222000 -20.374700 -8.315474 -4.972044 4.720785 30.195687 12.343352 -23.365243 -7.691139 -11.893322 43.201122 -2.566540 12.534478 -36.850661 -0.636400 5.103900 -14.205300 0.726233 -0.848925 -0.917978 -4.210705 -1.716362 28.388846 2.496249 -0.445295 -14.349064 -3.595167 -8.255015 -26.781464 6.394088 -9.819540 43.267691 -0.389900 -2.041100 18.035500 3.280893 -6.199673 -0.711529 -96.707013 -5.950585 47.479316 34.390261 -37.255952 -12.588161 0.951005 -0.109652 -28.535117 22.845644 6.271418 2.792100 -7.125000 0.000000 0.000000 -4.014000 37.404000 0.751800 0.125102 10.787902 0.589862 82.813432 10.621680 22.687585 -31.709228 33.364638 -9.456074 -0.230990 -0.423310 -17.469582 -35.668837 -4.975978 3.240700 7.125000 0.000000 0.000000 -7.231200 -35.514000 -1.696500 
6.465586 18.208733 -26.352885 2.801084 36.749204 4.195814 3.245428 3.299644 2.148262 -25.639508 -3.042423 -0.352420 5.911742 10.894180 36.100659 6.540971 -4.758733 -50.351875 1.272200 -7.148800 -20.157000 -8.342392 -4.915621 4.689351 30.627827 12.614868 -22.949332 -7.685084 -11.907470 43.225216 -2.529421 12.630714 -36.666601 -0.640600 5.120500 -14.252600 0.937042 -0.752531 -0.971714 -4.390279 -1.559924 28.195965 2.459856 -0.377641 -14.327158 -3.523188 -8.172865 -26.686770 6.340591 -9.718382 43.408247 -0.394200 -1.994100 18.052600 3.282501 -6.188625 -0.681078 -96.426077 -5.376899 47.241614 34.304215 -37.154485 -12.524313 0.962679 -0.132553 -28.976026 22.517155 4.501018 2.055000 -7.125000 0.000000 0.000000 -4.124200 35.510600 0.963600 0.180637 10.780180 0.584468 83.142229 10.638421 23.128935 -31.859482 33.515469 -9.567144 -0.236713 -0.408689 -17.428054 -35.636016 -4.772388 3.106500 7.125000 0.000000 0.000000 -7.191300 -35.287800 -1.726900 
6.468073 18.196847 -26.121066 2.624390 36.280152 3.982913 3.176801 3.278312 2.062115 -25.357982 -2.674889 -0.077234 5.883335 10.908050 36.030991 6.553836 -4.654983 -50.418256 1.317500 -7.270000 -20.517900 -8.408630 -4.826632 4.534659 31.048032 12.499070 -22.518561 -7.675460 -11.909201 43.237545 -2.455270 12.943329 -36.413841 -0.608600 4.993500 -13.890000 1.584583 -0.720462 -0.246960 -5.303253 -1.314570 26.982138 2.488625 -0.270661 -14.813130 -3.369379 -8.098032 -26.399038 6.280987 -9.690242 44.099911 -0.415800 -1.953500 18.106200 3.235320 -6.128825 -0.568481 -96.035751 -4.110573 46.976659 34.475572 -37.273875 -12.643867 0.966857 -0.119994 -28.883170 22.479817 4.681964 2.117700 -7.125000 0.000000 0.000000 -4.179000 35.691700 0.958000 0.495982 10.716567 0.626904 83.637029 9.984947 23.462509 -31.949416 33.615295 -9.646750 -0.247213 -0.381547 -17.238745 -35.652583 -4.469127 2.918200 7.125000 0.000000 0.000000 -7.186900 -34.961100 -1.783400 
6.473510 18.195096 -25.886944 2.299521 36.014639 3.511285 3.238544 3.222660 2.035884 -25.065859 -2.282034 0.441625 5.836354 10.827667 35.791235 6.575910 -4.825227 -50.473938 1.312600 -7.257000 -20.479100 -8.332656 -4.837063 4.593712 31.370815 12.485405 -22.179876 -7.675560 -11.922842 43.257670 -2.444536 12.928116 -36.324224 -0.642200 5.126900 -14.270900 1.010664 -0.647439 -1.085867 -4.064795 -1.495795 27.859291 2.357515 -0.310882 -14.309729 -3.464218 -7.962340 -26.555569 6.033458 -9.338435 43.643276 -0.435200 -1.876700 18.062000 3.184510 -6.160157 -0.635355 -96.151249 -4.177854 46.505811 34.498214 -37.282927 -12.627842 0.968383 -0.123415 -28.968171 22.493217 4.387284 2.004100 -7.125000 0.000000 0.000000 -4.141900 35.380600 0.980900 0.223235 10.760679 0.579049 83.611280 10.630348 23.953228 -31.966929 33.616864 -9.662134 -0.250544 -0.388493 -17.185215 -35.389908 -4.208976 2.702800 7.125000 0.000000 0.000000 -6.947900 -34.625400 -1.780400 
6.482078 18.186712 -25.655494 2.435759 35.470260 3.499040 3.056008 3.220613 1.974652 -24.949786 -1.833655 0.793265 5.752381 10.793667 35.489507 6.564697 -4.868863 -50.478211 1.276600 -7.160500 -20.191800 -8.513731 -4.730904 4.416974 31.581137 12.449362 -21.775081 -7.682301 -11.911371 43.294753 -2.387778 13.120586 -36.092331 -0.636100 5.102800 -14.202100 2.513979 -0.719004 -0.291065 -6.652767 -1.071737 26.372362 2.478754 -0.257829 -14.679614 -3.030822 -7.806193 -26.196040 6.187472 -9.351313 44.322061 -0.414700 -1.784800 18.117400 3.364987 -6.134002 -0.468032 -95.440085 -2.751638 46.099100 34.843451 -37.539806 -12.844587 0.974146 -0.095070 -29.023354 22.447929 4.462964 2.018700 -7.125000 0.000000 0.000000 -4.199300 35.434800 0.989000 0.741632 10.692880 0.614085 84.483056 9.957322 24.416740 -31.980741 33.642962 -9.712573 -0.250033 -0.353782 -16.949659 -35.658917 -4.140413 2.709100 7.125000 0.000000 0.000000 -7.178100 -34.599300 -1.844700 
6.511102 18.178696 -25.413356 2.631704 35.301343 3.317372 2.993784 3.186456 1.971339 -25.044018 -1.465107 1.507866 5.671938 10.698374 35.117768 6.582606 -4.989321 -50.525934 1.261600 -7.120100 -20.071500 -8.550018 -4.727482 4.336388 31.517996 11.782158 -21.347602 -7.685878 -11.891443 43.330054 -2.263238 13.718777 -35.785058 -0.625200 5.059900 -14.079400 2.740514 -0.789823 -0.658094 -7.169960 -1.107620 26.401247 2.520646 -0.328982 -14.375197 -2.926010 -7.651377 -26.080698 6.056621 -9.099849 44.262075 -0.421900 -1.695600 18.104800 3.447332 -6.160855 -0.453759 -95.363296 -2.176839 45.453022 35.212849 -37.833173 -13.025372 0.978548 0.000220 -28.640512 24.856133 7.158782 3.427600 -7.125000 0.000000 0.000000 -2.439800 38.422700 0.395500 0.795645 10.701911 0.598388 84.700233 10.039240 25.113426 -31.965497 33.606041 -9.722467 -0.250026 -0.349102 -17.029804 -35.580750 -3.905314 2.539700 7.125000 0.000000 0.000000 -7.099000 -34.317400 -1.873100 
